<svg xmlns="http://www.w3.org/2000/svg" width="256" height="256" viewBox="0 0 100 100"><rect width="100" height="100" rx="0" fill="#e7b500"></rect><path fill="#0a0c0d" d="M20.96 64.64L20.96 64.64Q18.81 64.64 17.01 64.47Q15.20 64.30 13.67 63.90Q12.14 63.50 10.75 62.83L10.75 62.83L10.75 55.69Q12.85 57.33 15.33 58.11Q17.81 58.88 19.82 58.88L19.82 58.88Q21.42 58.88 22.38 58.30Q23.35 57.71 23.35 56.28L23.35 56.28Q23.35 55.31 22.41 54.70Q21.46 54.10 19.89 53.61Q18.31 53.13 16.34 52.46L16.34 52.46Q15.16 52.04 14.05 51.45Q12.93 50.86 12.03 49.98Q11.13 49.10 10.60 47.80Q10.08 46.49 10.08 44.65L10.08 44.65Q10.08 42.80 10.77 41.12Q11.46 39.44 12.85 38.14Q14.24 36.83 16.38 36.10Q18.52 35.36 21.38 35.36L21.38 35.36Q23.10 35.36 24.48 35.55Q25.87 35.74 27.11 36.16Q28.35 36.58 29.61 37.21L29.61 37.21L29.61 44.44Q28.68 43.64 27.45 42.92Q26.21 42.21 24.86 41.71Q23.52 41.20 22.17 41.12L22.17 41.12Q21.04 41.08 20.05 41.31Q19.07 41.54 18.48 42.13Q17.89 42.71 17.89 43.72L17.89 43.72Q17.89 44.77 18.56 45.36Q19.23 45.95 20.47 46.37Q21.71 46.79 23.22 47.21L23.22 47.21Q24.99 47.71 26.44 48.34Q27.89 48.97 28.94 49.90Q29.99 50.82 30.57 52.14Q31.16 53.47 31.16 55.36L31.16 55.36Q31.16 58.04 29.90 60.14Q28.64 62.24 26.35 63.44Q24.06 64.64 20.96 64.64ZM42.59 64.05L35.61 64.05L35.61 36.04L41.91 36.04L55.69 54.31L53.38 59.18L53.38 36.04L60.35 36.04L60.35 64.05L54.81 64.05L40.95 46.24L42.59 42.80L42.59 64.05ZM79.25 55.19L73.67 55.19L73.67 64.05L66.06 64.05L66.06 36.04L79.25 36.04Q84.17 36.04 87.04 38.26Q89.92 40.49 89.92 45.28L89.92 45.28Q89.92 50.02 87.04 52.60Q84.17 55.19 79.25 55.19L79.25 55.19ZM73.67 41.83L73.67 49.39L78.29 49.39Q79.08 49.39 79.74 49.16Q80.39 48.93 80.81 48.45Q81.23 47.96 81.46 47.29Q81.69 46.62 81.69 45.78L81.69 45.78Q81.69 44.81 81.46 44.10Q81.23 43.39 80.81 42.86Q80.39 42.34 79.74 42.08Q79.08 41.83 78.29 41.83L78.29 41.83L73.67 41.83Z"></path></svg>