<svg class="icon" xmlns="http://www.w3.org/2000/svg" width="500" height="313" viewBox="0 0 500 313"><path fill="none" d="M0 0h500v313H0z"/><g fill="currentColor"><path d="M89.266 43.214c9.134.01 18.268-.002 27.401-.057 11.447 0 19.933 5.911 19.933 12.006v59.743c.122 6.714-8.49 10.143-15.307 10.143-3.516 0-9.781-.033-14.564-.033H89.266V43.215zm27.574 63.879V60.218c0-3.104-3.223-3.217-7.813-3.217v54.335c4.96 0 7.813-1.009 7.813-4.243zM146.25 110.03V43.164h20.738v64.959c0 3.944-.011 4.922 3.073 4.922 3.056 0 3.002-1.072 3.002-4.922l.072-64.959h20.88c0 21.986-.028 45.169-.028 66.866 0 3.794-.664 17.003-24.07 17.003-23.52 0-23.667-13.064-23.667-17.003zM203.08 43.1h17.067c3.24 11.107 8.291 25.378 12.808 37.208V43.1h17.088v82.052H232.17c-3.988-12.035-8.053-24.046-12.024-37.045v37.045h-17.067V43.1zM259.71 43.214c9.134.01 18.268-.002 27.401-.057 11.447 0 19.933 5.911 19.933 12.006v59.743c.122 6.714-8.49 10.143-15.307 10.143-3.516 0-9.781-.033-14.564-.033H259.71V43.215zm27.574 63.879V60.218c0-3.104-3.223-3.217-7.813-3.217v54.335c4.96 0 7.813-1.009 7.813-4.243zM316.96 43.02h34.933v15.923H337.92v17.06h12.998v13.973H337.92v19.01h14.948v15.923H316.96V43.02zM360.32 125.14V43.711c11.284 0 19.99.234 26.7.234 13.389 0 20.094 3.611 20.094 21.727 0 14.34-1.87 13.933-11.049 16.573 4.461.5 10.906 4.568 10.906 8.774l.142 34.121h-19.106c0-11.496-.229-23.784-.229-35.095-1.321-1.381-2.19-1.95-6.661-1.95v37.045H360.32zm27.703-51.993c0-4.421.04-14.298.04-14.298-1.075-1.367-2.322-1.925-4.346-1.95h-2.6v19.172h1.95c2.162.04 3.864-1.075 4.956-2.924zM81.157 214.94v-81.288h27.946c.803 8.13 4.87 32.876 5.524 37.37l5.525-37.37h26.97v81.288H128.56v-54.897l-7.433 54.897h-12.998c-1.585-9.52-5.833-37.833-8.208-53.839 0 15.172.084 36.733.084 53.84H81.156zM156.27 133.23h20.68v81.801h-20.68V133.23zM186.03 133.04h36.07v15.923h-14.948v16.248h12.998v14.948h-12.998v34.77H186.03V133.04zM227.62 133.04h36.07v15.923h-14.948v16.248h12.998v14.948h-12.998v34.77H227.62V133.04zM269.28 133.1h20.797v65.966h12.998v15.923h-33.796V133.1zM308.51 133.23h20.68v81.801h-20.68V133.23zM338.85 132.57h17.067c3.24 11.107 8.291 25.378 12.808 37.208V132.57h17.088v82.052H367.94c-3.988-12.035-8.053-24.046-12.024-37.045v37.045h-17.067V132.57z"/></g><g fill="currentColor"><path d="M389.99 133h34.999v8.978H389.99zM390.01 146.01h34.962v7.97l-14.045 4.115 14.045-.057v8.968h-34.984v-8.961l14.993-4.021-14.964-.03-.007-7.984zM410.01 191.99v-8.957h8.957s1.056.041 1.056-1.99-1.016-2.051-1.016-2.051h-22.97s-1.056.06-1.056 2.03c0 1.97 1.016 2.011 1.016 2.011h7.94v8.947h-8.956s-5.93-.03-5.93-10.592 5.93-11.374 5.93-11.374h25.001s6.032-.163 6.032 11.008c0 11.17-6.007 10.967-6.007 10.967h-9.997z"/></g><g fill="currentColor"><path d="M391.95 199.01h14.065v12.988c0 4.667-7.112 14.014-14.014 14.014v-5.95c1.285 0 3.98-3.836 3.98-5.078h-4l-.03-15.974zM110.44 229.88l-.438.781c-2.64 4.735-6.078 11.047-8.906 16.062l-.437.75.875-.031 2.906-.031h.281l.156-.25 2.126-3.75h7.28l2.063 3.719.156.25h4.032l-.438-.75-9.219-16-.437-.75zm.156 6.219 2.188 4.375h-4.281c.714-1.473 1.41-3.008 2.093-4.375zM342.12 229.88l-.438.781c-2.64 4.735-6.078 11.047-8.906 16.062l-.437.75.875-.031 2.906-.031h.281l.156-.25 2.094-3.75h7.281l2.094 3.719.157.25h4.031l-.438-.75-9.219-16-.437-.75zm.156 6.188 2.188 4.406h-4.281c.72-1.484 1.405-3.033 2.093-4.406zM363.06 230v17.031h.5l2.938.094h.53v-10.406l10.157 10.188.156.125h3.718V230H377.03v10.375l-10.156-10.22-.125-.156h-3.688zM231 230.03c-1.631 0-3.94.397-5.906 1.656s-3.563 3.453-3.563 6.844c0 3.372 1.512 5.68 3.438 7.063s4.233 1.875 5.969 1.875c3.346 0 5.312-1.094 5.312-1.094l.25-.157v-3.562l-.781.469c-1.44.89-2.255 1.468-4.25 1.469-.93 0-2.8-.494-4.313-1.532s-2.687-2.545-2.687-4.594c0-2.073.918-3.369 2.187-4.218s2.904-1.188 4.094-1.188c2.522 0 3.303.304 4.969 1.344l.781.5v-3.156l-.25-.125c-1.405-.832-2.11-1.594-5.25-1.594zM391.47 230.03l.531.781 5.906 8.719v7.563h4.157v-7.282l5.937-9 .5-.78h-4.25l-.156.218-4.063 5.437-4.062-5.437-.156-.219h-4.345zM155.5 230.44v17.031h11.094V245.002h-8.125v-5.594h7.094v-2.843h-7.094v-3.563h8.125V230.44H155.5zM258.5 230.5c-2.419 0-4.893.776-6.781 2.156s-3.188 3.402-3.188 5.813c0 2.397 1.288 4.667 3.156 6.312s4.32 2.688 6.75 2.688c2.444 0 4.944-1.046 6.844-2.688s3.22-3.901 3.22-6.312c0-2.396-1.322-4.398-3.22-5.781s-4.374-2.188-6.78-2.188zm-.031 2.563c1.593 0 3.378.602 4.719 1.593s2.218 2.32 2.218 3.813c0 1.478-.91 3.007-2.25 4.156s-3.071 1.906-4.625 1.906c-1.541 0-3.369-.729-4.75-1.875s-2.312-2.696-2.312-4.219c0-1.512.9-2.833 2.25-3.812s3.138-1.563 4.75-1.563zM81.5 230.59v15.781H84.438v-5.844h3.593c.02 0 .043-.03.063-.031.039-.003.098.008.156 0a4.553 4.553 0 0 0 1.813-.719c.996-.679 1.968-2.022 1.968-4.312 0-2.264-.674-3.528-1.437-4.188a2.951 2.951 0 0 0-1.063-.594 2.887 2.887 0 0 0-.375-.093c-.045-.007-.066.002-.093 0 0 0-.04.249-.063.5h-.031v-.5H81.5zm3 2.938h2.375c.018.001.044-.002.063 0 .075.007.168.046.28.062.226.032.506.068.782.188.553.238 1.063.614 1.063 1.687 0 1.058-.583 1.493-1.25 1.781a4.15 4.15 0 0 1-.938.281c-.13.021-.239.025-.313.032-.036.003-.074-.001-.093 0h-.031s-.017-.002-.032 0H84.5v-4.031zM131.47 230.59v15.781H134.408v-5.844H138c.02 0 .043-.03.063-.031.039-.003.098.008.156 0 .117-.017.282-.044.469-.094.374-.1.845-.285 1.344-.625.996-.679 2-2.022 2-4.312 0-2.264-.706-3.528-1.47-4.188a2.951 2.951 0 0 0-1.062-.594 2.887 2.887 0 0 0-.375-.093c-.045-.007-.066.002-.094 0l-.03.5h-.032v-.5h-7.5zm3 2.938h2.375c.024.002.037-.003.063 0 .075.007.168.046.28.062.226.032.537.068.813.188.553.238 1.031.614 1.031 1.687 0 1.058-.582 1.493-1.25 1.781a4.15 4.15 0 0 1-.937.281c-.13.021-.239.025-.313.032-.036.003-.074-.001-.093 0 0 0-.035-.004-.063 0h-1.906v-4.031zM179.5 230.59v15.781H182.438v-5.844l1.312-.031 4 5.687.125.22h.281l2.75-.032h1.063l-.656-.813-4.407-5.25c.345-.108.737-.245 1.156-.53.997-.68 1.97-2.023 1.97-4.313 0-2.264-.675-3.528-1.438-4.188a2.951 2.951 0 0 0-1.063-.594 2.887 2.887 0 0 0-.375-.093c-.045-.007-.066.002-.093 0 0 0-.04.249-.063.5h-.031v-.5H179.5zm3 2.938h2.375c.018.001.044-.002.063 0 .075.007.168.046.28.062.226.032.506.068.782.188.553.238 1.063.614 1.063 1.687 0 1.058-.583 1.493-1.25 1.781a4.15 4.15 0 0 1-.938.281c-.13.021-.239.025-.313.032-.036.003-.074-.001-.093 0 0 0-.035-.004-.063 0H182.5v-4.031zM312.47 230.59v15.781H315.439v-5.844H319.033c.019 0 .011-.03.03-.031.04-.003.099.008.157 0 .117-.017.282-.044.469-.094.374-.1.876-.285 1.375-.625.996-.679 1.969-2.022 1.969-4.312 0-2.264-.706-3.528-1.47-4.188a2.951 2.951 0 0 0-1.062-.594c-.146-.044-.253-.08-.343-.093-.046-.007-.098.002-.125 0l-.032.5h-.031v-.5h-7.5zm3.031 2.938H317.845c.028.003.066-.003.094 0 .075.007.169.046.281.062.225.032.505.068.781.188.553.238 1.031.614 1.031 1.687 0 1.058-.582 1.493-1.25 1.781a4.15 4.15 0 0 1-.937.281c-.13.021-.239.025-.313.032-.037.003-.074-.001-.093 0 0 0-.035-.004-.063 0h-1.875v-4.031zM297.31 231.47l-.125.219-5.688 7.906-5.687-7.875-.156-.219h-3.625v15.531H284.498l.53.031v-11l6.063 7.844.375.5.407-.5 6.062-7.875v11.094h3.094V231.47h-3.718z"/></g></svg>
