<svg class="icon" xmlns="http://www.w3.org/2000/svg" width="648" height="648" viewBox="0 0 648 648"><g fill="currentColor"><path d="M209 111.1C144.9 162.9 91.5 206 90.2 207l-2.4 1.9 114.9 142.5c63.1 78.4 115.3 142.5 115.9 142.5.7.1 232.8-186.3 237.6-190.8.6-.5-51.5-66.4-57.1-72.4-.4-.4-32.6 25-71.5 56.4s-70.9 56.9-71.1 56.7c-.1-.1-6.4-7.9-13.8-17.2l-13.6-16.8 5.7-4.7c4.6-3.8 123.9-99.9 125-100.7.4-.2-53.8-67.6-57.2-71.2l-2.2-2.3-65.3 52.7c-35.9 28.9-65.6 52.2-66 51.8-.4-.5-6.5-8-13.6-16.7-11.1-13.8-12.5-16-11.1-17 15.1-11.2 139.5-112.6 139.3-113.6-.3-1.8-56-71-57.2-71-.5 0-53.4 42.3-117.5 94zM346 565c-12.9 1.6-23.8 7.7-31.2 17.5-5.2 6.9-7.2 13.3-7.1 23 .1 17.4 10 31.1 26.8 37 11.3 4.1 31.8 2.9 44.6-2.6l4.9-2.1v-8.9c0-4.9-.3-8.9-.7-8.9-.4 0-4.5 1.6-9.1 3.6-22.1 9.5-42.3 2.5-45.7-15.8-1.1-5.6 1.7-13.6 6.2-17.9 6.6-6.4 9.5-7.4 21.3-7.4 9.3 0 11.2.3 17 2.8 10.9 4.8 10 5.2 10-5.2v-9.2l-4.3-1.9c-8.2-3.7-21.8-5.3-32.7-4zM434.8 565.1c-22.2 2.5-38.1 21.2-36.6 42.8 1.2 17 14.5 32 31.9 36 12.1 2.8 28.3.6 38.2-5.2 6.5-3.8 14.2-12.7 16.8-19.5 3.1-7.9 3.1-20.4.1-28.2-7.3-18.6-26.9-28.6-50.4-25.9zm20.1 19.5c17.2 8.6 15.2 35.9-3.1 42-5.9 1.9-15.7 1.5-20.4-.9-13.7-7.1-16.7-26.4-5.9-37.2 4.8-4.8 8.7-6.3 17.6-6.4 5.2-.1 7.6.4 11.8 2.5zM5 605v39h58v-15H25v-18h35v-15H25v-15h37v-15H5v39zM71.3 567.4c.4.9 8.8 18.7 18.8 39.6l18.2 38.1 4.9-.3 4.9-.3 12.5-27.5c6.9-15.1 15-32.8 17.9-39.3l5.4-11.7h-11.2l-11.2.1-8.9 20.5c-4.9 11.3-9.2 20.7-9.6 20.9-.3.2-4.9-8.9-10.2-20.3l-9.5-20.7-11.3-.3c-9.7-.2-11.2-.1-10.7 1.2zM165 605v39h20v-78h-20v39zM205 605v39h60v-15h-40v-63h-20v39zM504 605v39h20v-31h4.4c6.1 0 9.1 3.4 16.2 18.6l5.9 12.4h22.4l-2.5-5.8c-6.6-14.7-12.8-26.4-15.3-28.4l-2.7-2.3 4-3c5.9-4.4 8-8.6 8-15.9 0-9.7-4.3-16.4-13.4-20.5-4.1-1.9-6.5-2.1-25.7-2.1H504v39zm35.4-22.9c2.9 1.4 5.1 5.9 4.1 8.9-1.4 4.5-4.4 6-12.2 6H524v-16h6.5c3.5 0 7.5.5 8.9 1.1zM584 605v39h21v-30.8l11.8-.4c9.5-.3 12.5-.8 15.7-2.5 8.5-4.5 12.5-11.4 12.5-21.3 0-7.3-1.6-11.4-6.1-15.9-6.5-6.5-8.9-7.1-33.1-7.1H584v39zm37.8-21.7c2.6 2.4 3.2 5.8 1.6 9.5-1.4 3.5-5.9 5.2-13.6 5.2H605v-17.2l7.4.4c5.3.2 8 .8 9.4 2.1z"/></g></svg>
