<svg class="icon" xmlns="http://www.w3.org/2000/svg" width="528" height="474.667" viewBox="0 0 528 474.667"><g fill="currentColor"><path d="M495.59 165.952c-19.373 29.875-57.182 38.279-93.36 38.279-16.103 0-31.975-1.402-47.146-6.068-33.843-10.506-61.85-36.412-61.85-81.691 0-31.976 16.803-89.624 110.63-89.624 80.056 0 92.66 36.41 98.028 52.047l-54.616 9.802c-2.333-4.666-5.135-10.969-13.77-16.57-8.869-5.602-19.84-7.47-28.242-7.47-26.607 0-50.413 16.571-50.413 51.582 0 24.973 14.704 50.88 48.546 50.88 12.838 0 24.742-3.967 33.376-10.97 7.702-6.301 10.036-11.669 11.904-16.569l56.248 5.833c-1.866 6.07-3.966 12.138-9.336 20.539zM506.412 0H291.747c-11.783 0-21.08 9.755-21.08 21.539v204c0 2.945 2.134 5.128 5.08 5.128h230.666c11.782 0 21.587-9.347 21.587-21.128v-188C528 9.755 518.195 0 506.413 0M210.103 174.004c-13.771 20.773-41.546 29.876-85.89 29.876-16.572 0-49.481-1.401-68.854-18.672-14.237-12.604-16.337-27.773-17.272-35.243l58.117-1.634c2.1 10.736 13.071 18.905 36.41 18.905 6.069 0 14.705-.7 20.54-3.968 3.967-2.333 8.167-7.003 8.167-12.604 0-7.701-6.3-10.97-10.968-12.603-7.236-2.336-44.346-8.869-52.516-10.736-6.534-1.401-12.603-3.034-18.905-5.136-6.3-2.333-32.675-11.669-32.675-41.778 0-12.37 5.135-23.804 13.304-32.208 18.437-19.139 51.58-21.006 69.785-21.006 20.073 0 39.911 2.8 50.182 6.303 30.808 9.801 34.776 32.908 36.41 41.779l-57.883 3.265c-1.4-5.368-4.202-15.17-28.941-15.17-7.703 0-25.908 1.167-25.908 13.302 0 2.336.7 4.436 1.867 5.836 3.968 5.136 20.539 8.87 29.642 10.737 11.202 2.568 22.64 4.667 33.842 7.235 7.236 1.401 14.239 3.033 21.24 5.836 21.939 8.17 28.942 24.505 28.942 39.443 0 10.97-3.735 21.008-8.636 28.241zM235.747 0H21.08C9.297 0 0 9.755 0 21.539v188c0 11.781 9.297 21.128 21.08 21.128h230.667c2.945 0 5.586-2.183 5.586-5.128v-204C257.333 9.755 247.528 0 235.747 0M220.005 398.75c-4.202 9.57-11.904 22.574-30.81 32.38-17.736 9.335-34.075 10.203-49.947 10.203H34.667v-164h93.612c17.038 0 64.885-1.026 87.757 38.886 3.5 6.068 11.437 20.493 11.437 45 0 12.837-2.334 25.862-7.468 37.532zM251.747 244H21.08C9.297 244 0 253.755 0 265.539v188c0 11.78 9.297 21.128 21.08 21.128h214.667c11.781 0 21.586-9.347 21.586-21.128v-204c0-2.946-2.641-5.539-5.586-5.539"/><path d="M155.12 325.517c-10.27-8.169-24.274-9.517-35.245-9.517H92v88h26.242c20.073 0 31.509-3.441 38.28-9.51 7.934-7.002 13.3-20.717 13.3-34.722 0-15.635-6.3-27.483-14.702-34.25M427.188 317.79c-4.203-3.035-9.57-3.123-14.239-3.123h-42.282v32h37.614c10.036 0 24.974-.086 24.974-15.956 0-5.602-2.567-10.354-6.067-12.922"/><path d="M481.336 363.89C466.164 382.564 441.424 384 414.584 384h-43.917v58.667h-60V277.333h113.252c21.005 0 40.145.782 53.216 12.454 6.068 5.601 15.17 17.448 15.17 40.085 0 11.204-2.568 23.75-10.969 34.019zM506.413 244H275.747c-2.946 0-5.08 2.593-5.08 5.539v204c0 11.78 9.297 21.128 21.08 21.128h214.666c11.782 0 21.587-9.347 21.587-21.128v-188c0-11.784-9.805-21.539-21.587-21.539"/></g></svg>
