<svg class="icon" xmlns="http://www.w3.org/2000/svg" width="1160" height="653" viewBox="0 0 1160 653"><g fill="currentColor"><path d="M338 39.9v30.8l9.6 7.4c11.6 8.9 15.8 13.6 17.3 19.4.8 3 1.1 33.3 1.1 98.8v94.5l3.3 1.5c1.7.8 12.9 5.7 24.7 10.7 57.9 24.8 119 55.6 167.2 84.1 9.2 5.4 17.7 9.9 18.8 9.9 1.2 0 11.1-5.4 21.9-11.9 57.3-34.5 116.6-64.2 171.6-85.8 10.5-4.1 19.6-8 20.2-8.5 1-.8 1.3-22.4 1.5-97.7l.3-96.8 3-4.9c2-3.3 6-7.1 12-11.7 5-3.7 9.8-7.4 10.8-8.2 1.5-1.3 1.7-4.2 1.7-32V9H654.9l.3 11.2.3 11.3 19 .5c19.8.5 22.7 1.1 26.6 5.6 3.9 4.5 3.9 5.5 3.9 124v115.3l-3.7 3.1c-5.7 4.7-20.8 11.6-29.8 13.6-21.2 4.8-44.4.3-51.7-9.9l-2.3-3.2-.3-130.3L617 20h-74l-.2 130.9-.3 131-3 3.1c-1.6 1.8-4.7 4-6.7 5.1-10.9 5.6-32.2 7-46.3 3-8.2-2.3-22.6-9.3-28-13.7l-3-2.4V160.8c0-115.8 0-116.3 2.1-120.3 1.3-2.5 3.6-4.7 6.4-6.2 4-2.2 5.5-2.3 22.7-2.3H505V9H338v30.9zM17 212v10h280v-20H17v10zM859 212v10h280v-20H859v10zM6 450.4c0 1.1 35.9 83.2 44 100.8l1.3 2.8H115l1.9-3c1-1.7 9-16.1 17.7-32 8.7-15.9 16.2-28.6 16.6-28.2.3.4 7.9 14 16.9 30.2 8.9 16.2 16.9 30.3 17.7 31.2 1.4 1.6 4.2 1.8 32.7 1.8 23.8 0 31.5-.3 32.2-1.3 1.1-1.2 45.3-102.1 45.3-103.1 0-.3-13.8-.6-30.7-.6h-30.8l-10.4 28c-5.8 15.4-10.8 28-11.2 28-.4 0-7.3-12-15.4-26.8-8-14.7-15.4-27.3-16.3-28-1.2-.9-9-1.2-30.8-1.2h-29.3l-2.4 3.2c-1.3 1.8-8.4 14.3-15.7 27.8-7.3 13.5-13.6 24.8-14 25.3-.3.4-3.7-7.5-7.5-17.5-3.7-10.1-8.6-22.9-10.7-28.6l-4-10.2H36.4c-25.5 0-30.4.2-30.4 1.4zM372.8 450.2c-1.8 1.5-75.7 100.5-76.5 102.5-.4 1.1 5.4 1.3 32.5 1.3h33l4.6-7.9c2.6-4.4 5.4-8.2 6.2-8.5 2.7-1.1 68.4-.7 70.4.4 1 .5 3.8 4.4 6.1 8.5l4.3 7.5h33.9c29.1 0 33.8-.2 33.4-1.4-1.2-3-75.7-101.5-77.6-102.5-3-1.7-68.2-1.5-70.3.1zm46.4 46.3 10.6 17.5h-44l1.8-2.7c.9-1.5 5.7-9.4 10.6-17.5 4.9-8.2 9.2-14.8 9.6-14.8.4 0 5.5 7.9 11.4 17.5zM496.7 449.6c-.4.4 17 13.9 38.6 30.1 21.5 16.2 39.6 29.8 40.1 30.3s.8 10.6.7 22.4l-.2 21.6H642v-21.4c0-16.5.3-21.8 1.3-22.8.8-.7 18.8-14.4 40-30.3 21.3-16 38.7-29.3 38.7-29.8 0-.4-15.7-.7-34.9-.7h-34.8l-3.8 2.5c-2.9 2-21.3 17.3-37.6 31.2-1.4 1.2-4-.6-21.4-15.3-10.9-9.1-20.9-17-22.2-17.5-2.7-1-69.6-1.3-70.6-.3zM743 501.5V554h61v-27.5c0-15.1.2-27.5.5-27.5s16 11.3 34.8 25.2c18.8 13.8 35.7 26.2 37.6 27.5 3.3 2.3 3.7 2.3 33.7 2.3H941V449h-61l-.2 28.4-.3 28.3-38-28.1-37.9-28.1-30.3-.3-30.3-.3v52.6zM983 502v52h175v-24h-110v-20h100v-22h-99v-16h106v-22H983v52zM59 619.5V646h49v-7H70v-17h37v-7H70v-15h38v-7H59v26.5zM160 619.5V646h11l.2-21.7.3-21.8 18.9 21.8 18.8 21.7H225v-53h-11l-.2 22.1-.3 22-17.2-19.8c-9.4-10.9-18.1-20.8-19.3-22.1-1.8-1.9-3.1-2.2-9.5-2.2H160v26.5zM273 597v4h24v45h10v-45h24v-8h-58v4zM379 619.5V646h49v-7h-38v-17h37v-7h-37v-15h38v-7h-49v26.5zM592 619.4V646h10v-20l17.8-.1c20.3 0 23.6-.8 26.7-5.9 2.7-4.8 2.8-16.2.1-20.3-3.9-5.7-5.9-6.2-31.3-6.5l-23.3-.4v26.6zm44.3-16.2c2.4 2.8 2.3 9.9-.2 12.9-1.9 2.3-2.5 2.4-18 2.7l-16.1.3V599.8l16.3.7c14.6.6 16.4.9 18 2.7zM698.8 593.5c-.5.5-.8 12.5-.8 26.7V646h11v-20.1l16.6.3c19.8.4 19.4.1 19.4 12v7.8h11v-9.1c0-8.6-.1-9.2-2.8-11.9l-2.9-2.8 2.9-3c7-6.9 5.1-19.5-3.5-23.5-2.8-1.4-8.2-1.8-26.8-2.3-12.9-.4-23.7-.3-24.1.1zm45.5 9.7c1 1.3 1.7 3.7 1.7 6.4 0 6.2-2.4 8.4-9.2 8.4-2.9 0-10.4.3-16.5.7l-11.3.6v-19.4l16.8.7c15 .5 16.9.8 18.5 2.6zM810 619.5V646h10v-53h-10v26.5zM879 595.2c-5.4 2.8-7 5.6-7 12.5 0 11.7 3.7 13.9 25.3 15.3 7.8.5 15 1 15.9 1 4.4 0 6.5 8.1 3.2 12.8-1.4 2.1-2.2 2.2-16.4 2.2s-15-.1-16.4-2.2c-.9-1.2-1.6-3.7-1.6-5.5V628h-5.5c-5 0-5.5.2-5.5 2.2.1 4.8 2 10.2 4.4 12.6 2.3 2.3 3.6 2.6 13.3 3.3 5.9.3 15.9.3 22.2 0 11.1-.7 11.5-.8 14.2-3.8 3.4-3.9 4.7-11.9 2.7-17.7-2.2-6.5-5.1-7.6-24.8-9-19.1-1.3-20.5-1.8-20.3-8.2.2-6.1 1.7-6.9 15.9-7.2 14.1-.4 16.7.5 17.9 5.8.6 2.8.9 3 5.6 3h4.9v-3.5c0-2-.6-4.8-1.4-6.4-2.5-4.8-5.5-5.5-24.6-5.9-16.6-.3-17.7-.2-22 2zM980 619.5V646h49v-7h-38v-17h37v-7h-37v-15h38v-7h-49v26.5zM1087.5 594.2c-1.6.6-4 2-5.3 3.1-4.6 4.2-5.2 14.9-1.1 20.1 2.8 3.5 7.2 4.5 24.9 5.7 14.1.9 15.7 1.1 17.4 3.2 1.3 1.6 1.7 3.2 1.3 6-.9 6.6-1.3 6.7-17.8 6.7-16.8 0-17.9-.4-17.9-7.1V628h-11.3l.6 5.7c1.2 11.2 8.2 14 33.2 13.1 20.1-.8 23.8-3.3 23.7-15.7 0-12.7-2-13.9-26-15.6-15-1-17.7-1.5-18.8-3-2-2.7-1.7-6.9.5-9.6 1.8-2.3 2.7-2.4 14.6-2.7 14.2-.4 16.8.4 17.8 5.7.6 3 .9 3.1 5.8 3.1h5.2l-.6-4.6c-.6-5.4-3.5-9-8.6-10.4-4.7-1.3-33.7-1.1-37.6.2zM481 620v26h10v-20.1l16.6.3c19.8.4 19.4.1 19.4 12v7.8h11v-9.1c0-8.6-.1-9.2-2.9-11.9l-2.9-2.9 2.3-1.5c3.1-2 5.9-9.6 5.1-13.8-.3-1.8-1.5-4.8-2.6-6.6-3.5-5.7-6.2-6.2-32.5-6.2H481v26zm45.2-17.3c2.2 2 2.5 10 .4 12.8-1.6 2.2-10.1 3.3-25.8 3.4l-9.8.1v-18h16.7c14.1 0 16.9.3 18.5 1.7z"/></g></svg>
